<svg version="1.2" baseProfile="tiny-ps" xmlns="http://www.w3.org/2000/svg" viewBox="0 0 863 176" width="400" height="82">
	<title>link_logo_2c-ai</title>
	<style>
		tspan { white-space:pre }
		.shp0 { fill: #00b1e9 } 
		.shp1 { fill: #002a49 } 
	</style>
	<g id="Layer 1">
		<g id="&lt;Group&gt;">
			<path id="&lt;Path&gt;" class="shp0" d="M93.18 121.52L116.75 91.17L140.85 91.17L104.25 133.66L93.18 121.52Z" />
			<g id="&lt;Group&gt;">
				<path id="&lt;Path&gt;" class="shp0" d="M81.85 165.1C78.45 165.1 73.81 163.05 71.51 160.53L13.71 93.68C11.43 91.18 11.43 87.11 13.71 84.62L69.77 18.55C70.83 17.38 72.71 16.68 74.79 16.68C76.88 16.68 78.78 17.39 79.85 18.56L140.34 87.08L116.28 87.08L79.86 41.35C78.77 40.1 77.29 39.39 75.71 39.39C74.15 39.39 72.69 40.09 71.58 41.34L35.6 84.44C33.21 87.17 33.1 91.37 35.33 93.82L94.88 160.67C96.28 162.18 96.26 163.21 96.01 163.81C95.75 164.4 95 165.1 92.93 165.1L81.85 165.1Z" />
			</g>
			<g id="&lt;Group&gt;">
				<path id="&lt;Path&gt;" class="shp1" d="M105.44 161.9C103.17 161.9 101.13 161.18 100 159.95L79.66 137.6L39.04 91.17L62.58 91.17L100.42 136.74C101.47 137.95 102.85 138.62 104.34 138.62C105.82 138.62 107.21 137.95 108.25 136.75L144.25 93.68C146.35 91.29 147.18 87.18 144.88 84.69L85.33 17.82C83.82 16.18 83.85 15.03 84.16 14.36C84.57 13.41 85.77 12.9 87.5 12.9L99.67 12.9C102.75 12.9 106.05 14.6 108.76 17.55L166.21 84.43C168.58 87.03 168.57 91.27 166.19 93.88L110.89 159.93C109.77 161.18 107.74 161.9 105.44 161.9Z" />
			</g>
			<path id="&lt;Path&gt;" class="shp1" d="M38.74 87.08L76.04 43.73L86.4 56.23L62.63 87.08L38.74 87.08Z" />
			<g id="&lt;Group&gt;">
				<path id="&lt;Path&gt;" class="shp1" d="M237.5 20.73C237.42 20.65 237.33 20.62 237.2 20.64C232.3 21.12 227.17 21.18 222.37 21.18C220.1 21.18 217.78 21.17 215.4 21.14C212.89 21.12 210.29 21.09 207.6 21.09C205.16 21.09 202.77 21.12 200.43 21.14C198.19 21.17 196 21.18 193.85 21.18C188.57 21.18 183 21.12 177.89 20.64C177.74 20.64 177.67 20.65 177.6 20.73C177.51 20.81 177.47 20.91 177.47 21.01L177 41.95C176.99 42.06 177.04 42.17 177.11 42.25C177.19 42.32 177.28 42.35 177.39 42.35L181.6 42.35C181.8 42.35 181.97 42.22 181.99 42.02C183.73 30.17 187.32 26.74 197.97 26.74L201.68 26.74L201.68 70.68C201.68 81.22 201.68 84.4 192.54 84.4L191.41 84.4C191.2 84.4 191.03 84.58 191.03 84.8L191.03 89.38C191.03 89.59 191.2 89.76 191.41 89.76L223.68 89.76C223.9 89.76 224.07 89.59 224.07 89.38L224.07 84.8C224.07 84.58 223.9 84.4 223.68 84.4L222.57 84.4C213.4 84.4 213.4 81.22 213.4 70.68L213.4 26.74L216.86 26.74C227.76 26.74 231.27 30.04 233.11 42.03C233.14 42.22 233.31 42.35 233.5 42.35L237.71 42.35C237.82 42.35 237.91 42.32 237.99 42.25C238.05 42.17 238.09 42.06 238.09 41.95L237.63 21.01C237.63 20.91 237.58 20.81 237.5 20.73Z" />
				<path id="&lt;Path&gt;" class="shp1" d="M293.19 84.69L292.83 84.69C287.7 84.69 287.51 83.35 287.51 77.05L287.51 57.02C287.51 44.88 283.59 39.7 274.4 39.7C268.33 39.7 262.45 42.71 257.77 48.17L257.77 18.4C257.77 18.29 257.73 18.17 257.63 18.11C257.54 18.03 257.42 17.97 257.31 18.01L241.69 20.84C241.5 20.87 241.37 21.01 241.37 21.21L241.37 25.03C241.37 25.25 241.54 25.43 241.76 25.43C246.7 25.52 247.46 27.37 247.46 33.64L247.46 77.13C247.46 83.13 247.25 84.69 242.61 84.69L241.76 84.69C241.55 84.69 241.37 84.87 241.37 85.09L241.37 89.38C241.37 89.59 241.55 89.76 241.76 89.76L264.12 89.76C264.33 89.76 264.5 89.59 264.5 89.38L264.5 85.09C264.5 84.87 264.33 84.69 264.13 84.69C258.89 84.61 257.77 83.2 257.77 76.76L257.77 54.74C261.52 49.96 265.73 47.32 269.63 47.32C275.36 47.32 277.2 49.82 277.2 57.58L277.2 76.76C277.2 83.2 276.07 84.61 270.85 84.69C270.63 84.69 270.47 84.87 270.47 85.09L270.47 89.38C270.47 89.59 270.64 89.76 270.85 89.76L293.19 89.76C293.42 89.76 293.59 89.59 293.59 89.38L293.59 85.09C293.59 84.87 293.42 84.69 293.19 84.69Z" />
				<path id="&lt;Compound Path&gt;" fill-rule="evenodd" class="shp1" d="M340.93 74.84C341.09 74.95 341.16 75.14 341.08 75.31C337.02 85.23 328.93 90.9 318.84 90.9C304.76 90.9 296 81.51 296 66.39C296 50.39 305.43 39.25 318.93 39.25C331.88 39.25 340.27 48.12 340.27 61.89L340.27 63.01C340.27 63.22 340.1 63.4 339.88 63.4L306.33 63.4C306.63 75.57 312.51 82.54 322.49 82.54C328.79 82.54 333.12 79.6 336.92 72.74C336.96 72.64 337.06 72.57 337.15 72.54C337.27 72.52 337.39 72.54 337.47 72.6L340.93 74.84ZM329.1 57.66C328.89 49.35 324.76 44.22 318.28 44.22C311.98 44.22 307.54 49.35 306.64 57.66L329.1 57.66Z" />
				<path id="&lt;Path&gt;" class="shp1" d="M420.64 66.45L415.77 66.45C415.6 66.45 415.44 66.57 415.39 66.73C411.45 80.85 406.83 84.5 392.96 84.5C390.12 84.5 387.17 84.34 383.97 83.99C383.33 76.23 383.24 69.32 383.24 63.56L383.24 38.88C383.24 29.02 383.65 25.89 392.22 25.89L392.85 25.89C393.07 25.89 393.25 25.73 393.25 25.51L393.25 21.01C393.25 20.81 393.07 20.64 392.85 20.64L361.9 20.64C361.7 20.64 361.52 20.81 361.52 21.01L361.52 25.51C361.52 25.73 361.7 25.89 361.9 25.89L362.28 25.89C371.52 25.89 371.52 29.11 371.52 39.71L371.52 71.51C371.52 81.38 371.12 84.5 362.56 84.5L361.9 84.5C361.7 84.5 361.52 84.67 361.52 84.89L361.52 89.38C361.52 89.59 361.7 89.76 361.9 89.76L418.3 89.76C418.49 89.76 418.67 89.6 418.69 89.42L421.03 66.87C421.05 66.77 421 66.66 420.93 66.58C420.86 66.49 420.75 66.45 420.64 66.45Z" />
				<path id="&lt;Path&gt;" class="shp1" d="M449.72 84.69L449.23 84.69C443.24 84.69 442.44 83.1 442.44 76.76L442.44 46.08C442.44 45.55 442.46 44.62 442.5 43.3C442.54 42.29 442.58 41.07 442.62 39.64C442.62 39.53 442.57 39.41 442.48 39.34C442.4 39.26 442.28 39.25 442.17 39.25L424.58 42.14C424.4 42.19 424.26 42.34 424.26 42.53L424.26 46.36C424.26 46.57 424.43 46.75 424.64 46.75L425.77 46.75C430.91 46.75 431.64 48.47 431.64 54.87L431.64 76.94C431.64 83.47 431.48 84.69 425.96 84.69L424.37 84.69C424.15 84.69 423.97 84.87 423.97 85.09L423.97 89.38C423.97 89.59 424.15 89.76 424.37 89.76L449.72 89.76C449.93 89.76 450.09 89.59 450.09 89.38L450.09 85.09C450.09 84.87 449.93 84.69 449.72 84.69Z" />
				<path id="&lt;Path&gt;" class="shp1" d="M506.43 84.69L506.05 84.69C500.91 84.69 500.74 83.35 500.74 77.05L500.74 57.02C500.74 44.88 496.81 39.7 487.62 39.7C481.35 39.7 475.67 42.68 470.72 48.54L470.81 40.1C470.81 39.97 470.77 39.87 470.66 39.79C470.58 39.71 470.48 39.67 470.35 39.71L454.92 42.43C454.73 42.46 454.6 42.61 454.6 42.8L454.6 46.65C454.6 46.87 454.76 47.02 454.98 47.02C459.92 47.12 460.68 48.96 460.68 55.25L460.68 77.13C460.68 83.13 460.48 84.69 455.83 84.69L454.99 84.69C454.78 84.69 454.6 84.87 454.6 85.09L454.6 89.38C454.6 89.59 454.78 89.76 454.99 89.76L477.34 89.76C477.55 89.76 477.72 89.59 477.72 89.38L477.72 85.09C477.72 84.87 477.55 84.69 477.35 84.69C472.11 84.61 471 83.2 471 76.76L471 54.74C474.74 49.96 478.95 47.32 482.85 47.32C488.57 47.32 490.42 49.82 490.42 57.58L490.42 76.76C490.42 83.2 489.28 84.61 484.07 84.69C483.85 84.69 483.68 84.87 483.68 85.09L483.68 89.38C483.68 89.59 483.86 89.76 484.07 89.76L506.43 89.76C506.64 89.76 506.81 89.59 506.81 89.38L506.81 85.09C506.81 84.87 506.64 84.69 506.43 84.69Z" />
				<path id="&lt;Path&gt;" class="shp1" d="M560.78 84.69C556.8 84.59 555.39 83.5 553.43 80.47L539.03 57.93L549.53 48.34C551.81 46.24 554.66 45.35 559.09 45.35C559.32 45.35 559.47 45.17 559.47 44.95L559.47 40.67C559.47 40.45 559.32 40.27 559.09 40.27L535.15 40.27C534.93 40.27 534.76 40.45 534.76 40.67L534.76 44.95C534.76 45.17 534.93 45.35 535.15 45.35C539.53 45.35 541.31 45.46 541.31 46.56C541.31 47.39 540.49 48.44 539.26 49.74L526.84 63.13L526.84 18.4C526.84 18.29 526.79 18.17 526.7 18.11C526.61 18.03 526.51 17.97 526.38 18.01L510.11 20.92C509.92 20.95 509.79 21.11 509.79 21.31L509.79 25.14C509.79 25.36 509.97 25.52 510.18 25.52L511.3 25.52C516.49 25.52 517.18 27.15 517.18 33.64L517.18 77.05C517.18 83.08 517.18 84.69 511.68 84.69L510.83 84.69C510.62 84.69 510.44 84.87 510.44 85.09L510.44 89.38C510.44 89.59 510.62 89.76 510.83 89.76L534.12 89.76C534.33 89.76 534.5 89.59 534.5 89.38L534.5 85.09C534.5 84.87 534.33 84.69 534.12 84.69L533.65 84.69C527.65 84.69 526.84 83.1 526.84 76.76L526.84 70.09L531.71 65.04L547.64 90.05C547.71 90.17 547.82 90.24 547.97 90.24L547.99 90.24L560.78 89.76C561 89.76 561.16 89.59 561.16 89.38L561.16 85.09C561.16 84.87 560.99 84.69 560.78 84.69Z" />
				<path id="&lt;Path&gt;" class="shp1" d="M648.89 57.57L617.93 57.57C617.72 57.57 617.54 57.75 617.54 57.96L617.54 62.54C617.54 62.76 617.72 62.93 617.93 62.93L618.3 62.93C627.18 62.93 627.55 65.76 627.55 76.57C627.55 77.36 627.45 79.99 627.09 84.23C624.39 85.21 621.61 85.7 619.05 85.7C602.96 85.7 593.36 74.12 593.36 54.69C593.36 35.56 601.98 24.58 617 24.58C628.21 24.58 633.35 30.35 634.19 43.86C634.2 44.07 634.37 44.22 634.57 44.22L639.44 44.22C639.65 44.22 639.82 44.05 639.82 43.84L639.82 22.14C639.82 21.96 639.69 21.8 639.51 21.76C631.16 20.01 623.74 19.12 617.46 19.12C595.25 19.12 580.33 33.87 580.33 55.82C580.33 77.29 594.65 91.16 616.81 91.16C624.51 91.16 632.01 90.06 639.08 87.9C639.25 87.83 639.36 87.67 639.35 87.5C639.32 86.11 639.28 84.89 639.26 83.85C639.22 82.18 639.18 80.96 639.18 80.21L639.18 78.15C639.18 66.09 639.54 62.93 648.23 62.93L648.89 62.93C649.11 62.93 649.27 62.76 649.27 62.54L649.27 57.96C649.27 57.75 649.11 57.57 648.89 57.57Z" />
				<path id="&lt;Path&gt;" class="shp1" d="M683.7 39.14C677.33 39.14 672.06 43.59 668.39 52.04L668.39 39.63C668.39 39.53 668.34 39.41 668.25 39.34C668.16 39.26 668.03 39.21 667.93 39.25L652.31 41.95C652.12 42 651.99 42.15 651.99 42.34L651.99 46.17C651.99 46.39 652.17 46.56 652.38 46.56L653.13 46.56C658.19 46.56 658.92 48.29 658.92 54.69L658.92 76.39C658.92 83.19 658.92 84.59 653.13 84.59L652.1 84.59C651.88 84.59 651.71 84.78 651.71 85L651.71 89.38C651.71 89.59 651.88 89.76 652.1 89.76L678.66 89.76C678.88 89.76 679.04 89.59 679.04 89.38L679.04 85.09C679.04 84.87 678.88 84.7 678.67 84.69C670.46 84.4 669.61 83.64 669.61 76.48L669.61 66.39C669.61 53.5 675.65 47.02 679.02 47.02C681.3 47.02 682.67 48.49 682.66 50.95C682.65 53.2 683.78 55.35 685.76 55.5C690.13 55.82 693.63 52.48 693.63 47.87C693.63 42.8 689.47 39.14 683.7 39.14Z" />
				<path id="&lt;Compound Path&gt;" fill-rule="evenodd" class="shp1" d="M739.92 64.52C739.92 81.28 731.63 90.89 717.18 90.89C702.72 90.89 694.44 81.28 694.44 64.52C694.44 48.92 703.15 39.25 717.18 39.25C731.21 39.25 739.92 48.92 739.92 64.52ZM705.86 64.32C705.86 78.6 709.57 85.52 717.18 85.52C724.77 85.52 728.47 78.6 728.47 64.32C728.47 51.54 724.48 44.5 717.18 44.5C709.88 44.5 705.86 51.54 705.86 64.32Z" />
				<path id="&lt;Path&gt;" class="shp1" d="M794.75 83.56C789.6 83.56 789.14 81.43 789.14 75.35L789.14 54.13C789.14 52.88 789.22 48.26 789.52 39.64C789.53 39.53 789.48 39.41 789.38 39.34C789.3 39.25 789.13 39.23 789.07 39.25L772.14 42.05C771.95 42.09 771.81 42.25 771.81 42.44L771.81 46.27C771.81 46.48 771.99 46.67 772.2 46.67L772.86 46.67C778.04 46.67 778.82 48.51 778.82 54.87L778.82 77.47C775.83 81.77 772.19 83.94 767.99 83.94C761.89 83.94 759.4 80.45 759.4 71.9L759.4 53.85C759.4 52.17 759.5 47.13 759.68 39.64C759.69 39.53 759.64 39.41 759.54 39.34C759.45 39.26 759.35 39.21 759.22 39.25L743.33 41.95C743.15 41.99 743.01 42.15 743.01 42.34L743.01 46.17C743.01 46.39 743.18 46.56 743.38 46.56C748.37 46.65 749.08 48.37 749.08 54.69L749.08 73.31C749.08 83.85 751.58 90.89 763.78 90.89C770.14 90.89 775.28 88.41 779.09 83.48L779 90.5C779 90.62 779.05 90.72 779.15 90.79C779.21 90.86 779.3 90.89 779.4 90.89L779.47 90.89L794.8 88.09C795 88.06 795.13 87.9 795.13 87.7L795.13 83.96C795.13 83.75 794.95 83.56 794.75 83.56Z" />
				<path id="&lt;Compound Path&gt;" fill-rule="evenodd" class="shp1" d="M847.99 63C847.99 79.16 838.28 90.89 824.87 90.89C820.68 90.89 817.22 89.86 814.32 87.74L814.32 93.59C814.32 100.33 815.42 102.32 821.61 102.32L823.48 102.32C823.69 102.32 823.87 102.51 823.87 102.72L823.87 107.12C823.87 107.33 823.69 107.5 823.48 107.5L798.41 107.5C798.21 107.5 798.02 107.33 798.02 107.12L798.02 102.72C798.02 102.51 798.21 102.32 798.41 102.32L799.35 102.32C803.8 102.32 804.01 99.86 804.01 94.62L804.01 55.25C804.01 49.23 803.55 47.12 798.41 47.02C798.19 47.02 798.02 46.87 798.02 46.65L798.02 42.8C798.02 42.61 798.16 42.46 798.34 42.43L813.68 39.71C813.78 39.67 813.91 39.71 814 39.79C814.08 39.87 814.13 39.97 814.13 40.1L814.06 46.9C819.03 42 824.2 39.7 830.2 39.7C841.02 39.7 847.99 48.86 847.99 63ZM814.32 76.28C814.32 82.13 817.67 85.35 823.76 85.35C832.13 85.35 836.74 78.51 836.74 66.09C836.74 54.34 832.43 47.59 824.87 47.59C820.84 47.59 816.91 49.64 814.32 53.05L814.32 76.28Z" />
				<path id="&lt;Path&gt;" class="shp1" d="M437.29 32.5C436.29 33.5 434.66 33.5 433.66 32.5L428.83 27.68C427.83 26.68 427.83 25.05 428.83 24.04L433.66 19.22C434.66 18.22 436.29 18.22 437.29 19.22L442.1 24.04C443.1 25.05 443.1 26.68 442.1 27.68L437.29 32.5Z" />
			</g>
			<g id="&lt;Group&gt;">
				<g id="&lt;Group&gt;">
					<path id="&lt;Compound Path&gt;" class="shp0" d="M321.56 147.22C324.46 147.22 324.46 146.39 324.46 143.19L324.46 133.01C324.46 130.08 324.15 129.02 321.56 129.02C321.44 129.02 321.34 129.02 321.22 129.02L321.22 127.23L328.54 125.97L328.54 132.7C330.24 128.24 332.83 125.92 335.9 125.92C338.56 125.92 340.37 127.62 340.37 129.81C340.37 132.4 337.91 133.36 336.6 133.14C335.58 132.98 335.59 131.87 335.59 131.26C335.59 129.95 334.8 129.25 333.7 129.25C331.96 129.25 329.1 132.4 329.1 138.51L329.1 143.24C329.1 146.74 329.68 147.13 333.53 147.27L333.53 149.27L321.08 149.27L321.08 147.22C321.26 147.22 321.39 147.22 321.56 147.22Z" />
					<path id="&lt;Compound Path&gt;" class="shp0" d="M264.1 147.22C266.99 147.22 266.99 146.39 266.99 143.19L266.99 133.01C266.99 130.08 266.68 129.02 264.1 129.02C263.97 129.02 263.88 129.02 263.75 129.02L263.75 127.23L271.08 125.97L271.08 132.7C272.78 128.24 275.36 125.92 278.43 125.92C281.11 125.92 282.9 127.62 282.9 129.81C282.9 132.4 280.44 133.36 279.13 133.14C278.12 132.98 278.13 131.87 278.13 131.26C278.13 129.95 277.33 129.25 276.25 129.25C274.49 129.25 271.64 132.4 271.64 138.51L271.64 143.24C271.64 146.74 272.21 147.13 276.07 147.27L276.07 149.27L263.62 149.27L263.62 147.22C263.79 147.22 263.93 147.22 264.1 147.22Z" />
					<path id="&lt;Compound Path&gt;" class="shp0" d="M663.27 147.22C666.18 147.22 666.18 146.39 666.18 143.19L666.18 133.01C666.18 130.08 665.86 129.02 663.27 129.02C663.14 129.02 663.06 129.02 662.92 129.02L662.92 127.23L670.24 125.97L670.24 132.7C671.97 128.24 674.54 125.92 677.61 125.92C680.29 125.92 682.08 127.62 682.08 129.81C682.08 132.4 679.62 133.36 678.31 133.14C677.29 132.98 677.29 131.87 677.29 131.26C677.29 129.95 676.52 129.25 675.42 129.25C673.67 129.25 670.82 132.4 670.82 138.51L670.82 143.24C670.82 146.74 671.38 147.13 675.24 147.27L675.24 149.27L662.79 149.27L662.79 147.22C662.98 147.22 663.1 147.22 663.27 147.22Z" />
					<path id="&lt;Compound Path&gt;" class="shp0" d="M742.2 147.22C745.09 147.22 745.09 146.39 745.09 143.19L745.09 133.01C745.09 130.08 744.77 129.02 742.2 129.02C742.06 129.02 741.97 129.02 741.84 129.02L741.84 127.23L749.16 125.97L749.16 132.7C750.87 128.24 753.45 125.92 756.52 125.92C759.2 125.92 761 127.62 761 129.81C761 132.4 758.53 133.36 757.22 133.14C756.21 132.98 756.21 131.87 756.21 131.26C756.21 129.95 755.42 129.25 754.33 129.25C752.57 129.25 749.73 132.4 749.73 138.51L749.73 143.24C749.73 146.74 750.3 147.13 754.16 147.27L754.16 149.27L741.7 149.27L741.7 147.22C741.9 147.22 742.01 147.22 742.2 147.22Z" />
					<path id="&lt;Compound Path&gt;" class="shp0" d="M178.7 138.51C179.93 145.01 182.66 148.14 187.5 148.14C191.54 148.14 194.08 145.68 194.08 142.29C194.08 138.68 191.71 137.14 187.31 135.17C181.39 132.52 177.38 130.64 177.38 125.23C177.38 120.18 181.39 116.48 188.19 116.48C190.61 116.48 193.56 116.97 197.03 117.93L197.03 126.59L194.83 126.59C194.35 121.32 191.71 118.55 187.45 118.55C184.07 118.55 181.73 120.53 181.73 123.38C181.73 127.17 184.99 128.4 190.12 130.69C195.89 133.23 198.7 135.52 198.7 140.35C198.7 146.29 194.48 150.06 186.92 150.06C184.63 150.06 181.29 149.72 176.94 148.71L176.5 138.51L178.7 138.51Z" />
					<path id="&lt;Compound Path&gt;" class="shp0" d="M208.05 130.73C210.2 127.68 212.92 126.19 216.17 126.19C219.3 126.19 221.46 127.87 221.98 130.77C224.17 127.78 227.08 126.19 230.15 126.19C234.64 126.19 236.13 128.88 236.13 134.15L236.13 143.3C236.13 143.47 236.13 143.65 236.13 143.82C236.13 146.51 236.22 147.34 238.77 147.34C238.82 147.34 238.9 147.34 238.95 147.34L238.95 149.36L228.47 149.36L228.47 147.34C231.16 147.29 231.65 146.41 231.65 143.43L231.65 134.41C231.65 131.03 230.9 129.41 227.87 129.41C225.98 129.41 224 130.64 222.15 133.01L222.15 143.3C222.15 143.39 222.15 143.47 222.15 143.56C222.15 146.46 222.19 147.34 224.83 147.34C224.88 147.34 224.97 147.34 225.02 147.34L225.02 149.36L214.51 149.36L214.51 147.34C217.19 147.29 217.67 146.41 217.67 143.43L217.67 134.41C217.67 131.03 216.97 129.41 213.93 129.41C212.04 129.41 210.02 130.64 208.18 133.01L208.18 143.43C208.18 146.41 208.67 147.29 211.34 147.34L211.34 149.36L200.83 149.36L200.83 147.34C200.97 147.34 201.1 147.34 201.23 147.34C203.65 147.34 203.7 146.33 203.7 143.61C203.7 143.47 203.7 143.39 203.7 143.3L203.7 133.31C203.7 130.42 203.38 129.32 200.83 129.27L200.83 127.47L208.08 126.19L208.05 130.73Z" />
					<path id="&lt;Compound Path&gt;" fill-rule="evenodd" class="shp0" d="M244.87 133.89C243.37 133.89 242.18 132.62 242.18 131.03C242.18 128.35 245.44 125.93 250.54 125.93C256.73 125.93 259.14 128.75 259.14 134.29C259.14 135.9 259.06 138.51 259.06 142.06C259.06 142.45 259.06 142.86 259.06 143.21C259.06 146.59 259.2 147.69 262.18 147.87L262.18 149.36C260.9 149.72 259.67 149.89 258.53 149.89C256.11 149.89 255.05 148.83 254.84 146.29C253.03 148.66 250.49 149.89 247.28 149.89C242.89 149.89 240.47 147.52 240.47 143.69C240.47 138.11 244.73 137.58 251.11 135.9C254.13 135.12 255.05 134.37 255.05 132.17C255.05 129.32 253.65 127.9 250.84 127.9C248.82 127.9 247.59 128.88 247.59 130.42C247.59 131.03 247.76 131.61 248.07 132.3C247.06 133.36 245.88 133.89 244.87 133.89ZM245.44 143.16C245.44 145.49 246.89 147.08 249.31 147.08C252.95 147.08 255.02 144 255.02 137.93C255.02 137.54 254.97 137.19 254.97 136.79C248.59 138.85 245.44 139.56 245.44 143.16Z" />
					<path id="&lt;Compound Path&gt;" class="shp0" d="M283.94 127.47C286.18 125.53 288.25 123.21 290.12 120.4L291.93 120.4L291.93 126.46L298.17 126.46L298.17 129.1L291.93 129.1L291.93 142.51C291.93 145.68 292.42 147.29 295.4 147.29C296.37 147.29 297.34 147.03 298.48 146.59L298.48 148.57C296.78 149.45 295.14 149.89 293.25 149.89C288.33 149.89 287.45 147.65 287.45 143.39C287.45 143.3 287.45 143.21 287.45 143.08L287.67 129.1L283.94 129.1L283.94 127.47Z" />
					<path id="&lt;Compound Path&gt;" fill-rule="evenodd" class="shp0" d="M303.59 136.96C303.67 142.94 306.62 146.33 311.37 146.33C314.45 146.33 316.51 144.87 318.31 141.63L319.94 142.68C318.05 147.29 314.27 149.89 309.66 149.89C303.05 149.89 299.11 145.49 299.11 138.55C299.11 130.91 303.72 125.98 309.7 125.98C315.68 125.98 319.54 129.98 319.54 136.44C319.54 136.61 319.54 136.79 319.54 136.96L303.59 136.96ZM309.38 127.96C306.35 127.96 304.11 130.37 303.72 134.63L314.67 134.63C314.62 130.37 312.51 127.96 309.38 127.96Z" />
					<path id="&lt;Compound Path&gt;" fill-rule="evenodd" class="shp0" d="M352.44 147.21C356.61 147.21 356.96 145.71 356.96 141.27L356.96 125.31C356.96 120.83 356.61 119.35 352.44 119.35C352.4 119.35 352.3 119.35 352.26 119.35L352.26 117.23L365.67 117.23C375.34 117.23 380 119.78 380 125.36C380 129.63 377 132.08 370.9 133.28C372.66 134.29 374.16 135.87 375.38 137.98L378.9 143.96C380.17 146.12 380.83 147.29 383.25 147.29C383.47 147.29 383.69 147.25 383.91 147.25L383.91 149.36L377.58 149.49C376.74 149.49 376.39 149.14 375.91 148.35L369.71 138.07C367.91 135.09 366.85 133.98 363.86 133.98C363.33 133.98 362.76 134.02 362.15 134.06L362.15 141.27C362.15 145.71 362.42 147.21 366.63 147.21C366.68 147.21 366.77 147.21 366.82 147.21L366.82 149.36L352.26 149.36L352.26 147.21C352.3 147.21 352.4 147.21 352.44 147.21ZM364.79 132C371.2 132 374.46 129.85 374.46 125.8C374.46 121.32 371.25 119.47 364.61 119.47C363.96 119.47 363.2 119.47 362.33 119.56C362.2 121.1 362.15 122.69 362.15 124.26L362.15 131.91C363.03 131.96 363.91 132 364.79 132Z" />
					<path id="&lt;Compound Path&gt;" fill-rule="evenodd" class="shp0" d="M388.35 136.96C388.44 142.94 391.38 146.33 396.13 146.33C399.2 146.33 401.26 144.87 403.07 141.63L404.7 142.68C402.81 147.29 399.03 149.89 394.4 149.89C387.81 149.89 383.87 145.49 383.87 138.55C383.87 130.91 388.47 125.98 394.46 125.98C400.43 125.98 404.31 129.98 404.31 136.44C404.31 136.61 404.31 136.79 404.31 136.96L388.35 136.96ZM394.15 127.96C391.11 127.96 388.87 130.37 388.47 134.63L399.42 134.63C399.38 130.37 397.27 127.96 394.15 127.96Z" />
					<path id="&lt;Compound Path&gt;" class="shp0" d="M416 147.96C418.68 147.96 420.52 146.15 420.52 144.09C420.52 141.01 418.37 140.49 414.37 139.21C409.93 137.8 407.78 136.09 407.78 132.7C407.78 128.93 410.98 125.98 415.43 125.98C417.89 125.98 419.6 126.89 420.71 126.89C421.06 126.89 421.45 126.73 421.88 126.42L422.94 126.42L422.94 133.31L420.93 133.31C420.18 129.81 418.1 127.96 415.24 127.96C412.92 127.96 411.47 129.41 411.47 131.25C411.47 133.54 413.23 134.2 416.48 135.26C421.37 136.88 424.17 138.15 424.17 142.68C424.17 147.03 420.93 149.89 416.22 149.89C413.67 149.89 411.74 149.05 410.54 149.05C410.02 149.05 409.58 149.22 409.05 149.58L407.51 149.58L407.3 141.27L409.5 141.27C410.72 145.71 412.92 147.96 416 147.96Z" />
					<path id="&lt;Compound Path&gt;" fill-rule="evenodd" class="shp0" d="M430.98 136.96C431.08 142.94 434.03 146.33 438.77 146.33C441.84 146.33 443.92 144.87 445.72 141.63L447.34 142.68C445.45 147.29 441.66 149.89 437.06 149.89C430.46 149.89 426.5 145.49 426.5 138.55C426.5 130.91 431.13 125.98 437.1 125.98C443.08 125.98 446.95 129.98 446.95 136.44C446.95 136.61 446.95 136.79 446.95 136.96L430.98 136.96ZM436.79 127.96C433.76 127.96 431.52 130.37 431.13 134.63L442.07 134.63C442.03 130.37 439.92 127.96 436.79 127.96Z" />
					<path id="&lt;Compound Path&gt;" fill-rule="evenodd" class="shp0" d="M453.93 133.89C452.44 133.89 451.25 132.62 451.25 131.03C451.25 128.35 454.52 125.93 459.61 125.93C465.81 125.93 468.22 128.75 468.22 134.29C468.22 135.9 468.13 138.51 468.13 142.06C468.13 142.45 468.13 142.86 468.13 143.21C468.13 146.59 468.27 147.69 471.27 147.87L471.27 149.36C469.98 149.72 468.75 149.89 467.61 149.89C465.19 149.89 464.13 148.83 463.92 146.29C462.12 148.66 459.56 149.89 456.35 149.89C451.95 149.89 449.54 147.52 449.54 143.69C449.54 138.11 453.81 137.58 460.18 135.9C463.22 135.12 464.13 134.37 464.13 132.17C464.13 129.32 462.73 127.9 459.91 127.9C457.9 127.9 456.66 128.88 456.66 130.42C456.66 131.03 456.84 131.61 457.15 132.3C456.13 133.36 454.95 133.89 453.93 133.89ZM454.52 143.16C454.52 145.49 455.96 147.08 458.39 147.08C462.03 147.08 464.1 144 464.1 137.93C464.1 137.54 464.04 137.19 464.04 136.79C457.67 138.85 454.52 139.56 454.52 143.16Z" />
					<path id="&lt;Compound Path&gt;" class="shp0" d="M501.94 149.89C495.39 149.89 491.52 145.54 491.52 138.72C491.52 131.17 496.49 125.98 503.03 125.98C508 125.98 510.98 128.22 510.98 130.95C510.98 132.62 509.79 133.72 508.09 133.72C507.3 133.72 506.33 133.41 505.27 132.93C505.4 132.27 505.54 131.64 505.54 131.08C505.54 129.19 504.31 128.01 502.29 128.01C499.04 128.01 496.18 131.25 496.18 136.79C496.18 142.81 498.99 146.2 503.39 146.2C506.25 146.2 508.75 144.48 510.64 141.06L512.27 142.06C510.32 147.12 506.5 149.89 501.94 149.89Z" />
					<path id="&lt;Compound Path&gt;" class="shp0" d="M513.36 147.34C515.78 147.34 515.83 146.33 515.83 143.61C515.83 143.47 515.83 143.39 515.83 143.3L515.83 123.17C515.83 120.27 515.51 119.16 512.97 119.12L512.97 117.32L520.3 116L520.3 130.5C522.55 127.68 525.36 126.19 528.3 126.19C532.79 126.19 534.28 128.88 534.28 134.15L534.28 143.3C534.28 143.39 534.28 143.47 534.28 143.56C534.28 146.46 534.34 147.34 536.97 147.34C537.01 147.34 537.1 147.34 537.13 147.34L537.13 149.36L526.63 149.36L526.63 147.34C529.32 147.29 529.8 146.41 529.8 143.43L529.8 134.41C529.8 131.03 529.1 129.41 526.06 129.41C524.18 129.41 522.16 130.64 520.3 133.01L520.3 143.43C520.3 146.41 520.79 147.29 523.47 147.34L523.47 149.36L512.97 149.36L512.97 147.34C513.1 147.34 513.22 147.34 513.36 147.34Z" />
					<path id="&lt;Compound Path&gt;" fill-rule="evenodd" class="shp0" d="M557.28 147.21C561.46 147.21 561.82 145.75 561.82 141.27L561.82 125.31C561.82 120.66 561.46 119.39 557.12 119.35L557.12 117.23L570.53 117.23C579.58 117.23 584.07 119.39 584.07 124.92C584.07 128.97 581.02 131.69 575.45 132.27C582.7 132.67 586.34 135.48 586.34 140.57C586.34 143.61 584.94 146.02 582.17 147.61C579.41 149.18 575.45 149.36 570.12 149.36L557.12 149.36L557.12 147.21C557.17 147.21 557.25 147.21 557.28 147.21ZM569.86 131.47C575.84 131.47 578.69 129.49 578.69 125.23C578.69 121.54 575.88 119.25 570.21 119.25C569.24 119.25 568.19 119.3 567.18 119.43C567.04 120.97 567.01 122.55 567.01 124.13L567.01 131.34C568.15 131.43 569.11 131.47 569.86 131.47ZM571.22 147.29C577.38 147.29 580.63 144.57 580.63 140.3C580.63 135.74 577.29 133.58 570.57 133.58C569.52 133.58 568.32 133.62 567.01 133.72L567.01 139.07C567.01 140.7 567.09 143.39 567.35 147.12C568.8 147.21 570.12 147.29 571.22 147.29Z" />
					<path id="&lt;Compound Path&gt;" fill-rule="evenodd" class="shp0" d="M592.9 136.96C592.99 142.94 595.94 146.33 600.67 146.33C603.76 146.33 605.83 144.87 607.63 141.63L609.25 142.68C607.36 147.29 603.58 149.89 598.97 149.89C592.38 149.89 588.42 145.49 588.42 138.55C588.42 130.91 593.03 125.98 599.01 125.98C604.99 125.98 608.86 129.98 608.86 136.44C608.86 136.61 608.86 136.79 608.86 136.96L592.9 136.96ZM598.69 127.96C595.67 127.96 593.43 130.37 593.03 134.63L603.98 134.63C603.93 130.37 601.82 127.96 598.69 127.96Z" />
					<path id="&lt;Compound Path&gt;" class="shp0" d="M610.41 127.47C612.63 125.53 614.7 123.21 616.59 120.4L618.4 120.4L618.4 126.46L624.63 126.46L624.63 129.1L618.4 129.1L618.4 142.51C618.4 145.68 618.88 147.29 621.87 147.29C622.83 147.29 623.81 147.03 624.94 146.59L624.94 148.57C623.24 149.45 621.61 149.89 619.71 149.89C614.8 149.89 613.92 147.65 613.92 143.39C613.92 143.3 613.92 143.21 613.92 143.08L614.14 129.1L610.41 129.1L610.41 127.47Z" />
					<path id="&lt;Compound Path&gt;" class="shp0" d="M625.58 127.47C627.84 125.53 629.9 123.21 631.79 120.4L633.6 120.4L633.6 126.46L639.84 126.46L639.84 129.1L633.6 129.1L633.6 142.51C633.6 145.68 634.08 147.29 637.06 147.29C638.04 147.29 639 147.03 640.14 146.59L640.14 148.57C638.42 149.45 636.81 149.89 634.91 149.89C629.99 149.89 629.11 147.65 629.11 143.39C629.11 143.3 629.11 143.21 629.11 143.08L629.33 129.1L625.58 129.1L625.58 127.47Z" />
					<path id="&lt;Compound Path&gt;" fill-rule="evenodd" class="shp0" d="M645.26 136.96C645.35 142.94 648.3 146.33 653.03 146.33C656.12 146.33 658.19 144.87 659.98 141.63L661.62 142.68C659.73 147.29 655.94 149.89 651.33 149.89C644.72 149.89 640.78 145.49 640.78 138.55C640.78 130.91 645.4 125.98 651.37 125.98C657.36 125.98 661.22 129.98 661.22 136.44C661.22 136.61 661.22 136.79 661.22 136.96L645.26 136.96ZM651.06 127.96C648.02 127.96 645.78 130.37 645.4 134.63L656.33 134.63C656.3 130.37 654.18 127.96 651.06 127.96Z" />
					<path id="&lt;Compound Path&gt;" class="shp0" d="M697.32 138.51C698.55 145.01 701.27 148.14 706.1 148.14C710.16 148.14 712.7 145.68 712.7 142.29C712.7 138.68 710.33 137.14 705.93 135.17C699.99 132.52 696 130.64 696 125.23C696 120.18 699.99 116.48 706.81 116.48C709.22 116.48 712.17 116.97 715.65 117.93L715.65 126.59L713.45 126.59C712.97 121.32 710.33 118.55 706.07 118.55C702.68 118.55 700.35 120.53 700.35 123.38C700.35 127.17 703.59 128.4 708.74 130.69C714.51 133.23 717.31 135.52 717.31 140.35C717.31 146.29 713.09 150.06 705.53 150.06C703.25 150.06 699.91 149.72 695.56 148.71L695.12 138.51L697.32 138.51Z" />
					<path id="&lt;Compound Path&gt;" fill-rule="evenodd" class="shp0" d="M724.22 136.96C724.31 142.94 727.25 146.33 732 146.33C735.08 146.33 737.14 144.87 738.94 141.63L740.58 142.68C738.68 147.29 734.91 149.89 730.28 149.89C723.69 149.89 719.73 145.49 719.73 138.55C719.73 130.91 724.35 125.98 730.34 125.98C736.31 125.98 740.18 129.98 740.18 136.44C740.18 136.61 740.18 136.79 740.18 136.96L724.22 136.96ZM730.03 127.96C727 127.96 724.74 130.37 724.35 134.63L735.3 134.63C735.25 130.37 733.14 127.96 730.03 127.96Z" />
					<path id="&lt;Compound Path&gt;" class="shp0" d="M761.41 128.49L761.41 126.46L772.01 126.46L772.01 128.49C771.91 128.49 771.78 128.49 771.69 128.49C769.94 128.49 769.24 128.88 769.24 130.11C769.24 130.56 769.41 131.13 769.68 131.86L774.38 144.62C777.85 136.26 779.58 131.43 779.58 130.11C779.58 128.88 778.64 128.54 776.27 128.49L776.27 126.46L785.41 126.46L785.41 128.49C783.48 128.79 782.64 130.02 781.81 132.05L774.55 149.89L772.01 149.89L765.59 133.31C764.45 130.42 764.01 128.75 761.41 128.49Z" />
					<path id="&lt;Compound Path&gt;" class="shp0" d="M787.29 147.34C790.11 147.34 790.17 146.55 790.17 143.51C790.17 143.47 790.17 143.39 790.17 143.3L790.17 133.14C790.17 130.15 789.81 129.15 787.21 129.15C787.04 129.15 786.86 129.15 786.69 129.15L786.69 127.34L794.95 125.98C794.91 127.56 794.87 128.57 794.87 129.01L794.87 143.43C794.87 146.51 795.3 147.34 798.25 147.34C798.29 147.34 798.39 147.34 798.47 147.34L798.47 149.36L786.55 149.36L786.55 147.34C786.82 147.34 787.08 147.34 787.29 147.34Z" />
					<path id="&lt;Compound Path&gt;" class="shp0" d="M809.58 149.89C803.04 149.89 799.16 145.54 799.16 138.72C799.16 131.17 804.13 125.98 810.67 125.98C815.66 125.98 818.64 128.22 818.64 130.95C818.64 132.62 817.46 133.72 815.74 133.72C814.95 133.72 813.98 133.41 812.93 132.93C813.06 132.27 813.19 131.64 813.19 131.08C813.19 129.19 811.96 128.01 809.94 128.01C806.68 128.01 803.82 131.25 803.82 136.79C803.82 142.81 806.63 146.2 811.03 146.2C813.89 146.2 816.39 144.48 818.29 141.06L819.92 142.06C817.98 147.12 814.16 149.89 809.58 149.89Z" />
					<path id="&lt;Compound Path&gt;" fill-rule="evenodd" class="shp0" d="M825.93 136.96C826.03 142.94 828.98 146.33 833.72 146.33C836.8 146.33 838.87 144.87 840.66 141.63L842.28 142.68C840.4 147.29 836.61 149.89 832.01 149.89C825.4 149.89 821.45 145.49 821.45 138.55C821.45 130.91 826.08 125.98 832.05 125.98C838.03 125.98 841.9 129.98 841.9 136.44C841.9 136.61 841.9 136.79 841.9 136.96L825.93 136.96ZM831.74 127.96C828.7 127.96 826.48 130.37 826.08 134.63L837.02 134.63C836.98 130.37 834.86 127.96 831.74 127.96Z" />
					<path id="&lt;Compound Path&gt;" class="shp0" d="M473.2 147.22C476.09 147.22 476.09 146.39 476.09 143.19L476.09 133.01C476.09 130.08 475.77 129.02 473.2 129.02C473.06 129.02 472.97 129.02 472.84 129.02L472.84 127.23L480.17 125.97L480.17 132.7C481.87 128.24 484.45 125.92 487.53 125.92C490.2 125.92 491.99 127.62 491.99 129.81C491.99 132.4 489.54 133.36 488.23 133.14C487.22 132.98 487.22 131.87 487.22 131.26C487.22 129.95 486.43 129.25 485.34 129.25C483.57 129.25 480.73 132.4 480.73 138.51L480.73 143.24C480.73 146.74 481.31 147.13 485.16 147.27L485.16 149.27L472.71 149.27L472.71 147.22C472.88 147.22 473.02 147.22 473.2 147.22Z" />
				</g>
				<path id="&lt;Path&gt;" class="shp0" d="M792.45 122.56C792 123.02 791.24 123.02 790.79 122.56L788.6 120.37C788.13 119.92 788.13 119.18 788.6 118.72L790.8 116.52C791.24 116.07 792 116.07 792.44 116.52L794.64 118.72C795.08 119.18 795.08 119.92 794.64 120.37L792.45 122.56Z" />
				<path id="&lt;Path&gt;" class="shp0" d="M849.46 149.41C849.01 149.86 848.27 149.86 847.81 149.41L845.62 147.21C845.16 146.75 845.16 146.02 845.62 145.55L847.81 143.35C848.27 142.9 849.01 142.9 849.46 143.35L851.66 145.55C852.11 146.02 852.11 146.75 851.66 147.21L849.46 149.41Z" />
				<path id="&lt;Path&gt;" class="shp0" d="M544.01 149.41C543.55 149.86 542.8 149.86 542.35 149.41L540.15 147.21C539.7 146.75 539.7 146.02 540.15 145.55L542.35 143.35C542.8 142.9 543.55 142.9 544.01 143.35L546.19 145.55C546.64 146.02 546.64 146.75 546.19 147.21L544.01 149.41Z" />
			</g>
		</g>
	</g>
</svg>